<svg width="146" height="146" viewBox="0 0 146 146" fill="none" xmlns="http://www.w3.org/2000/svg">
<path d="M80.3756 17.9819C79.1334 17.818 78.0809 17.4023 77.218 16.7348C76.3552 16.0673 75.7326 15.2209 75.3503 14.1955C74.968 13.1701 74.847 12.0348 74.9872 10.7894C75.1747 9.55033 75.586 8.4852 76.2212 7.59403C76.8563 6.70286 77.6771 6.04681 78.6835 5.6259C79.6899 5.20498 80.8142 5.07646 82.0564 5.24033C83.2986 5.40419 84.3452 5.8191 85.1962 6.48503C86.0591 7.15253 86.6808 8.00489 87.0616 9.04211C87.4557 10.0691 87.5835 11.1993 87.4448 12.4328C87.2588 13.66 86.8416 14.7244 86.1931 15.6258C85.558 16.517 84.7372 17.173 83.7308 17.594C82.7362 18.0164 81.6178 18.1457 80.3756 17.9819ZM80.5746 16.4735C81.521 16.5983 82.3713 16.4938 83.1255 16.16C83.8797 15.8262 84.4886 15.3167 84.9521 14.6316C85.4156 13.9465 85.7082 13.1425 85.8299 12.2198C85.9517 11.297 85.8775 10.4446 85.6075 9.66276C85.3376 8.88088 84.8817 8.23095 84.2398 7.71297C83.598 7.19499 82.8039 6.87358 81.8574 6.74873C80.8991 6.62231 80.0429 6.72602 79.2887 7.05984C78.5464 7.39523 77.9434 7.90548 77.4799 8.59059C77.0164 9.27571 76.7238 10.0797 76.6021 11.0025C76.4803 11.9252 76.5545 12.7776 76.8245 13.5594C77.0944 14.3413 77.5444 14.9905 78.1744 15.5069C78.8162 16.0249 79.6163 16.3471 80.5746 16.4735Z" fill="#1F2022"/>
<path d="M91.8293 20.7686C91.2158 20.5354 90.7355 20.1868 90.3885 19.723C90.0525 19.2633 89.8573 18.7359 89.8027 18.1407C89.7593 17.5497 89.8521 16.953 90.081 16.3507L91.8874 11.599C91.968 11.387 92.1083 11.2361 92.3085 11.1463C92.5198 11.0606 92.7314 11.0581 92.9433 11.1386C93.1552 11.2192 93.3061 11.3596 93.396 11.5597C93.4859 11.7598 93.4906 11.9659 93.41 12.1778L91.6672 16.7622C91.1499 18.123 91.5047 19.0367 92.7317 19.5031C93.2894 19.7151 93.8409 19.7588 94.3862 19.6342C94.9426 19.5138 95.5093 19.2824 96.0862 18.94L97.9944 13.9206C98.075 13.7086 98.2153 13.5577 98.4154 13.4678C98.6267 13.3822 98.8383 13.3797 99.0503 13.4602C99.2622 13.5408 99.4131 13.6811 99.503 13.8813C99.5929 14.0814 99.5975 14.2874 99.517 14.4994L96.7883 21.6772C96.7077 21.8891 96.5653 22.0456 96.3609 22.1466C96.1608 22.2365 95.9547 22.2411 95.7428 22.1606C95.5309 22.08 95.3744 21.9375 95.2734 21.7332C95.1877 21.5219 95.1852 21.3103 95.2657 21.0983L95.5265 20.4124C94.9246 20.7197 94.3252 20.9195 93.7284 21.0118C93.1316 21.1041 92.4986 21.023 91.8293 20.7686Z" fill="#1F2022"/>
<path d="M99.8162 24.286C99.6201 24.1721 99.494 24.0091 99.4378 23.797C99.3816 23.585 99.4105 23.3809 99.5244 23.1849L103.382 16.5453C103.496 16.3492 103.659 16.2231 103.871 16.1669C104.089 16.1004 104.296 16.1241 104.492 16.238C104.688 16.3519 104.811 16.5201 104.862 16.7424C104.928 16.9605 104.904 17.1676 104.79 17.3636L104.404 18.0291C105.69 17.4789 106.781 17.4645 107.679 17.9861L107.756 18.031C107.952 18.1449 108.073 18.3049 108.119 18.511C108.175 18.7231 108.147 18.9271 108.033 19.1232C107.919 19.3192 107.759 19.4402 107.553 19.486C107.347 19.5319 107.14 19.4949 106.934 19.375L106.857 19.3301C106.361 19.0423 105.836 18.9023 105.279 18.9102C104.728 18.9077 104.191 19.037 103.666 19.2982L100.933 24.0032C100.819 24.1992 100.651 24.3223 100.428 24.3725C100.216 24.4287 100.012 24.3999 99.8162 24.286Z" fill="#1F2022"/>
<path d="M111.769 33.1702C111.605 33.0137 111.521 32.8257 111.516 32.6064C111.511 32.387 111.587 32.1954 111.743 32.0314L118.826 24.6137L116.186 22.0919C116.03 21.9435 115.95 21.7681 115.946 21.5657C115.941 21.3632 116.013 21.1843 116.161 21.029C116.309 20.8736 116.485 20.7936 116.687 20.789C116.898 20.7757 117.081 20.8432 117.236 20.9915L123.683 27.1477C123.838 27.296 123.914 27.4757 123.911 27.6868C123.924 27.8975 123.857 28.0805 123.708 28.2359C123.56 28.3912 123.38 28.4671 123.169 28.4635C122.967 28.4682 122.788 28.3964 122.632 28.248L120.004 25.7386L112.921 33.1563C112.765 33.3203 112.572 33.4007 112.344 33.3975C112.125 33.4026 111.933 33.3268 111.769 33.1702Z" fill="#1F2022"/>
<path d="M118.178 40.777C117.323 39.5987 116.986 38.4345 117.169 37.2846C117.369 36.1372 118.077 35.122 119.294 34.239C119.98 33.7414 120.704 33.4079 121.465 33.2385C122.227 33.0692 122.976 33.1156 123.712 33.3778C124.447 33.6401 125.092 34.1527 125.646 34.9157C126.164 35.6304 126.444 36.3712 126.484 37.1381C126.534 37.8979 126.377 38.6163 126.013 39.2932C125.659 39.9631 125.154 40.5363 124.497 41.0129C124.313 41.146 124.113 41.1954 123.897 41.1609C123.687 41.1361 123.508 41.0223 123.361 40.8195L119.798 35.9082C119.178 36.4761 118.833 37.1091 118.765 37.8074C118.697 38.5057 118.939 39.2364 119.493 39.9994C119.787 40.405 120.082 40.7295 120.376 40.9729C120.678 41.2259 121.006 41.4447 121.361 41.6293C121.456 41.6785 121.538 41.7514 121.609 41.848C121.721 42.0026 121.766 42.1763 121.744 42.3693C121.721 42.5623 121.628 42.7184 121.464 42.8375C121.252 42.9917 120.982 42.9958 120.655 42.8498C120.169 42.6273 119.74 42.3711 119.367 42.0812C118.995 41.7912 118.598 41.3565 118.178 40.777ZM123.971 39.4041C124.423 39.0317 124.728 38.6189 124.885 38.1654C125.05 37.7217 125.089 37.2879 125.003 36.864C124.926 36.4332 124.768 36.0536 124.53 35.7252C124.292 35.3968 123.98 35.1293 123.594 34.9227C123.218 34.7091 122.793 34.6117 122.32 34.6305C121.848 34.6493 121.364 34.8159 120.87 35.1303L123.971 39.4041Z" fill="#1F2022"/>
<path d="M122.59 48.0578C122.365 47.5834 122.252 47.0954 122.252 46.5936C122.256 46.1026 122.386 45.6516 122.64 45.2405C122.905 44.8242 123.28 44.501 123.765 44.2707C124.562 43.8921 125.347 43.9029 126.118 44.3031C126.894 44.714 127.571 45.5286 128.149 46.7468L129.078 48.7035L129.207 48.6421C129.919 48.3044 130.347 47.8835 130.49 47.3793C130.639 46.886 130.537 46.2674 130.184 45.5235C129.99 45.1138 129.784 44.7627 129.565 44.4699C129.352 44.188 129.089 43.8837 128.775 43.557C128.713 43.481 128.669 43.416 128.643 43.3621C128.567 43.2004 128.559 43.0321 128.622 42.8572C128.684 42.6824 128.801 42.554 128.974 42.4721C129.265 42.334 129.536 42.3769 129.788 42.601C130.611 43.3331 131.248 44.1735 131.698 45.1222C132.051 45.8661 132.197 46.563 132.135 47.213C132.079 47.8737 131.865 48.4377 131.492 48.9052C131.135 49.3782 130.677 49.7478 130.116 50.0138L125.54 52.1857C125.335 52.2829 125.127 52.2893 124.915 52.2049C124.708 52.1313 124.556 51.9921 124.459 51.7872C124.362 51.5824 124.35 51.3766 124.424 51.17C124.497 50.9633 124.636 50.8114 124.841 50.7142L125.262 50.5146C124.064 50.1057 123.173 49.2868 122.59 48.0578ZM124.145 47.9936C124.37 48.468 124.7 48.8724 125.136 49.207C125.583 49.5364 126.051 49.7702 126.539 49.9084L127.898 49.2637L127.061 47.5011C126.289 45.8732 125.476 45.2614 124.625 45.6655C124.237 45.8497 123.985 46.1275 123.871 46.4988C123.762 46.8808 123.853 47.3791 124.145 47.9936Z" fill="#1F2022"/>
<path d="M126.281 56.0645C126.237 55.8422 126.275 55.6397 126.396 55.457C126.518 55.2742 126.69 55.1604 126.912 55.1156L134.439 53.5973C134.661 53.5525 134.864 53.5908 135.047 53.7122C135.241 53.8312 135.361 54.0019 135.406 54.2241C135.45 54.4464 135.406 54.65 135.273 54.8351C135.154 55.0296 134.983 55.1492 134.761 55.194L134.042 55.3391C134.576 55.5723 135.041 55.8863 135.437 56.2812C135.835 56.6877 136.109 57.2595 136.258 57.9964C136.39 58.6515 136.328 59.2483 136.071 59.787C135.815 60.3257 135.455 60.7452 134.992 61.0455C136.343 61.5277 137.163 62.4824 137.45 63.9095C137.583 64.5646 137.528 65.1415 137.288 65.6404C137.05 66.151 136.695 66.5634 136.223 66.8778C135.751 67.1922 135.234 67.406 134.673 67.5192L129.619 68.5385C129.397 68.5833 129.193 68.5392 129.008 68.4061C128.825 68.2847 128.712 68.1129 128.667 67.8906C128.622 67.6684 128.66 67.4659 128.782 67.2832C128.903 67.1004 129.075 66.9866 129.297 66.9418L134.035 65.9862C134.795 65.8329 135.323 65.5863 135.62 65.2465C135.929 64.9043 136.017 64.4056 135.884 63.7506C135.764 63.154 135.506 62.6887 135.11 62.3547C134.728 62.03 134.255 61.7664 133.69 61.5637L128.427 62.6254C128.204 62.6703 128.001 62.6261 127.816 62.493C127.633 62.3716 127.519 62.1998 127.474 61.9776C127.429 61.7553 127.468 61.5528 127.589 61.3701C127.71 61.1873 127.882 61.0735 128.104 61.0287L132.842 60.0731C133.602 59.9198 134.131 59.6732 134.427 59.3334C134.736 58.9912 134.824 58.4926 134.692 57.8375C134.571 57.2409 134.313 56.7756 133.917 56.4416C133.535 56.1169 133.062 55.8533 132.498 55.6506L127.234 56.7123C127.012 56.7572 126.808 56.713 126.623 56.5799C126.44 56.4585 126.326 56.2867 126.281 56.0645Z" fill="#1F2022"/>
<path d="M139.455 78.0652C139.474 77.8153 139.579 77.6079 139.771 77.443C139.963 77.2781 140.184 77.2052 140.434 77.2242L140.506 77.2296C140.756 77.2486 140.963 77.3542 141.128 77.5462C141.293 77.7383 141.366 77.9593 141.347 78.2092L141.339 78.3162C141.32 78.5661 141.214 78.7735 141.022 78.9384C140.83 79.1033 140.609 79.1762 140.359 79.1572L140.288 79.1518C140.038 79.1328 139.83 79.0272 139.665 78.8352C139.501 78.6431 139.428 78.4221 139.447 78.1723L139.455 78.0652ZM128.404 77.2601C128.421 77.034 128.513 76.8495 128.68 76.7066C128.846 76.5637 129.042 76.5008 129.268 76.518L136.925 77.1008C137.151 77.118 137.336 77.2098 137.479 77.3762C137.634 77.5436 137.702 77.7403 137.685 77.9664C137.667 78.2044 137.575 78.3948 137.408 78.5377C137.242 78.6806 137.04 78.743 136.802 78.7249L129.145 78.1422C128.919 78.125 128.735 78.0272 128.593 77.8489C128.45 77.6824 128.387 77.4862 128.404 77.2601Z" fill="#1F2022"/>
<path d="M127.969 81.7904C128.017 81.5689 128.134 81.399 128.319 81.2807C128.503 81.1624 128.707 81.1275 128.928 81.1761L136.429 82.8202C136.65 82.8687 136.82 82.9853 136.939 83.1701C137.069 83.3574 137.109 83.5618 137.061 83.7832C137.012 84.0047 136.89 84.1733 136.693 84.2891C136.506 84.4191 136.302 84.4598 136.08 84.4112L135.363 84.2541C135.756 84.8044 136.042 85.3679 136.221 85.9446C136.4 86.5214 136.412 87.1594 136.259 87.8588C136.119 88.4999 135.846 89.0204 135.44 89.4202C135.033 89.8317 134.54 90.1023 133.961 90.2322C133.381 90.3736 132.776 90.3754 132.146 90.2374L127.18 89.149C126.959 89.1005 126.79 88.978 126.675 88.7816C126.556 88.5969 126.521 88.3937 126.57 88.1723C126.619 87.9508 126.735 87.7809 126.92 87.6626C127.105 87.5443 127.308 87.5094 127.529 87.5579L132.32 88.608C133.742 88.9197 134.594 88.4344 134.875 87.1522C135.002 86.5694 134.966 86.0117 134.765 85.479C134.562 84.958 134.248 84.4373 133.825 83.9169L128.579 82.7672C128.358 82.7186 128.189 82.5961 128.073 82.3997C127.955 82.215 127.92 82.0119 127.969 81.7904Z" fill="#1F2022"/>
<path d="M123.156 97.1821C123.267 96.9843 123.428 96.8558 123.639 96.7964C123.85 96.737 124.055 96.7627 124.253 96.8736L133.807 102.233C134.004 102.344 134.133 102.505 134.192 102.716C134.262 102.933 134.242 103.141 134.131 103.338L132.134 106.898C131.579 107.886 130.96 108.6 130.277 109.037C129.594 109.475 128.916 109.683 128.244 109.662C127.572 109.64 126.934 109.46 126.33 109.122C125.727 108.783 125.24 108.333 124.872 107.77C124.503 107.208 124.328 106.521 124.345 105.709C124.362 104.898 124.648 103.998 125.203 103.01L126.797 100.168L123.456 98.2943C123.258 98.1833 123.132 98.0171 123.079 97.7955C123.019 97.5843 123.045 97.3798 123.156 97.1821ZM126.624 103.622C126.029 104.684 125.814 105.542 125.981 106.196C126.141 106.861 126.523 107.363 127.127 107.701C127.731 108.04 128.358 108.104 129.009 107.895C129.654 107.696 130.275 107.066 130.87 106.004L132.385 103.303L128.139 100.921L126.624 103.622Z" fill="#1F2022"/>
<path d="M125.687 113.816C125.841 113.618 126.044 113.504 126.295 113.472C126.546 113.44 126.77 113.502 126.968 113.655L127.025 113.699C127.223 113.853 127.338 114.055 127.369 114.306C127.401 114.558 127.34 114.782 127.186 114.98L127.12 115.065C126.967 115.263 126.764 115.378 126.513 115.409C126.262 115.441 126.037 115.38 125.839 115.226L125.783 115.182C125.585 115.028 125.47 114.826 125.438 114.575C125.407 114.324 125.468 114.099 125.622 113.901L125.687 113.816ZM116.914 107.049C117.053 106.87 117.232 106.767 117.449 106.739C117.667 106.712 117.865 106.768 118.044 106.907L124.11 111.617C124.289 111.756 124.392 111.934 124.419 112.152C124.456 112.377 124.405 112.579 124.266 112.758C124.12 112.946 123.937 113.054 123.72 113.082C123.502 113.109 123.299 113.049 123.111 112.903L117.045 108.193C116.866 108.054 116.767 107.871 116.747 107.644C116.719 107.427 116.775 107.228 116.914 107.049Z" fill="#1F2022"/>
<path d="M114.39 110.201C114.558 110.032 114.744 109.948 114.947 109.948C115.149 109.965 115.339 110.063 115.516 110.24C115.642 110.367 115.718 110.527 115.743 110.721L116.092 115L120.446 115.435C120.657 115.461 120.825 115.537 120.952 115.664C121.12 115.833 121.2 116.023 121.192 116.234C121.191 116.453 121.111 116.643 120.95 116.803C120.748 117.005 120.524 117.085 120.279 117.043L116.318 116.62L116.744 120.57C116.785 120.814 116.709 121.034 116.515 121.227C116.346 121.396 116.152 121.48 115.932 121.48C115.721 121.488 115.54 121.416 115.388 121.264C115.262 121.137 115.186 120.977 115.161 120.783L114.812 116.428L110.459 116.018C110.265 116.009 110.096 115.933 109.953 115.789C109.793 115.629 109.704 115.439 109.688 115.22C109.679 115.009 109.768 114.81 109.954 114.625C110.14 114.44 110.364 114.368 110.625 114.411L114.574 114.77L114.148 110.947C114.106 110.652 114.187 110.403 114.39 110.201Z" fill="#1F2022"/>
<path d="M104.2 118.885C105.397 118.056 106.568 117.745 107.714 117.953C108.856 118.177 109.856 118.908 110.712 120.143C111.195 120.84 111.513 121.571 111.666 122.336C111.818 123.101 111.756 123.848 111.478 124.578C111.199 125.308 110.673 125.942 109.898 126.479C109.172 126.982 108.426 127.245 107.658 127.269C106.897 127.303 106.183 127.13 105.514 126.751C104.852 126.383 104.29 125.865 103.827 125.198C103.698 125.012 103.653 124.81 103.692 124.595C103.722 124.386 103.839 124.21 104.045 124.067L109.033 120.611C108.478 119.978 107.853 119.621 107.156 119.537C106.46 119.454 105.724 119.68 104.949 120.217C104.537 120.503 104.206 120.79 103.957 121.079C103.697 121.375 103.471 121.699 103.279 122.05C103.228 122.144 103.153 122.224 103.055 122.292C102.898 122.401 102.723 122.442 102.531 122.416C102.338 122.39 102.184 122.293 102.069 122.126C101.919 121.911 101.921 121.641 102.074 121.317C102.307 120.836 102.573 120.413 102.87 120.046C103.168 119.68 103.612 119.293 104.2 118.885ZM105.447 124.707C105.81 125.167 106.216 125.481 106.666 125.648C107.106 125.822 107.539 125.871 107.964 125.794C108.397 125.726 108.78 125.577 109.113 125.346C109.446 125.115 109.721 124.809 109.936 124.427C110.157 124.056 110.264 123.634 110.255 123.161C110.247 122.687 110.091 122.2 109.787 121.699L105.447 124.707Z" fill="#1F2022"/>
<path d="M98.2655 122.507C98.4674 122.404 98.6727 122.386 98.8814 122.453C99.0902 122.521 99.2462 122.656 99.3494 122.857L104.64 133.2C104.743 133.402 104.761 133.607 104.693 133.816C104.631 134.035 104.499 134.196 104.297 134.3C104.085 134.408 103.874 134.429 103.666 134.361C103.457 134.294 103.298 134.154 103.189 133.942L97.8993 123.599C97.796 123.397 97.7834 123.189 97.8615 122.975C97.929 122.766 98.0636 122.61 98.2655 122.507Z" fill="#1F2022"/>
<path d="M92.0921 125.112C93.2119 124.699 94.3237 124.576 95.4275 124.742C95.6673 124.806 95.8306 124.956 95.9172 125.191C95.9832 125.37 95.9793 125.549 95.9056 125.729C95.832 125.909 95.6999 126.034 95.5096 126.104C95.4088 126.141 95.2998 126.156 95.1825 126.148C94.7664 126.123 94.3627 126.132 93.9714 126.175C93.5801 126.217 93.1605 126.321 92.7126 126.486C91.4696 126.943 90.9946 127.57 91.2874 128.365C91.3823 128.622 91.6 128.765 91.9406 128.792C92.2701 128.823 92.7904 128.803 93.5018 128.732C94.2202 128.645 94.8287 128.606 95.3272 128.613C95.8146 128.624 96.2769 128.74 96.7142 128.96C97.1444 129.196 97.4626 129.594 97.6688 130.154C97.9575 130.938 97.9127 131.679 97.5343 132.378C97.1447 133.081 96.4236 133.626 95.371 134.014C94.5088 134.332 93.6454 134.491 92.7808 134.491C92.6075 134.504 92.459 134.463 92.3353 134.369C92.2003 134.279 92.1081 134.167 92.0586 134.032C91.9926 133.853 92.0021 133.672 92.087 133.488C92.1606 133.308 92.2927 133.183 92.483 133.113C92.539 133.092 92.6159 133.077 92.7138 133.066C93.4375 133.028 94.1128 132.894 94.7399 132.663C95.3446 132.441 95.7793 132.153 96.0439 131.801C96.3015 131.465 96.3663 131.123 96.2385 130.776C96.1147 130.44 95.8672 130.251 95.496 130.21C95.1247 130.169 94.5819 130.197 93.8676 130.295C93.1451 130.37 92.5457 130.4 92.0696 130.385C91.5975 130.381 91.152 130.259 90.733 130.019C90.3028 129.783 89.9805 129.374 89.766 128.792C89.502 128.075 89.569 127.376 89.9668 126.696C90.3535 126.019 91.0619 125.491 92.0921 125.112Z" fill="#1F2022"/>
<path d="M80.6577 132.838C81.0839 132.784 81.494 132.84 81.8881 133.006C82.2704 133.174 82.5906 133.422 82.8489 133.75C83.1087 134.09 83.2658 134.473 83.32 134.899C83.3743 135.325 83.3175 135.73 83.1497 136.112C82.9833 136.506 82.7361 136.832 82.4082 137.09C82.0683 137.35 81.6853 137.507 81.2592 137.562C80.833 137.616 80.4288 137.559 80.0466 137.391C79.6525 137.225 79.3314 136.971 79.0835 136.63C78.8252 136.302 78.6689 135.925 78.6146 135.498C78.5604 135.072 78.6164 134.662 78.7827 134.268C78.9388 133.887 79.1867 133.567 79.5265 133.307C79.8545 133.049 80.2316 132.893 80.6577 132.838Z" fill="#1F2022"/>
<path d="M64.4971 127.848C65.7359 128.036 66.78 128.472 67.6295 129.157C68.4791 129.841 69.0849 130.7 69.4469 131.732C69.809 132.765 69.9077 133.903 69.743 135.145C69.5311 136.38 69.0989 137.437 68.4464 138.315C67.7939 139.194 66.9604 139.834 65.9459 140.235C64.9314 140.636 63.8048 140.742 62.566 140.554C61.3273 140.366 60.289 139.93 59.4513 139.248C58.6018 138.563 57.9969 137.699 57.6366 136.654C57.2627 135.62 57.1572 134.487 57.3201 133.257C57.5302 132.034 57.9683 130.978 58.6344 130.089C59.287 129.211 60.1205 128.571 61.135 128.17C62.1377 127.767 63.2584 127.66 64.4971 127.848ZM64.2685 129.352C63.3247 129.209 62.4725 129.296 61.7119 129.615C60.9513 129.934 60.3325 130.432 59.8556 131.108C59.3787 131.783 59.0704 132.581 58.9305 133.502C58.7906 134.422 58.848 135.275 59.1026 136.063C59.3571 136.85 59.8001 137.508 60.4317 138.039C61.0632 138.569 61.8508 138.906 62.7946 139.05C63.7502 139.195 64.6083 139.108 65.369 138.789C66.1178 138.468 66.7306 137.97 67.2075 137.294C67.6844 136.618 67.9928 135.82 68.1326 134.9C68.2725 133.98 68.2151 133.126 67.9606 132.339C67.706 131.552 67.2689 130.894 66.6492 130.366C66.0177 129.835 65.2241 129.497 64.2685 129.352Z" fill="#1F2022"/>
<path d="M53.101 124.838C53.7098 125.084 54.1831 125.442 54.5209 125.912C54.8476 126.378 55.0324 126.91 55.0752 127.506C55.1069 128.098 55.0024 128.692 54.7615 129.29L52.8614 134.005C52.7767 134.215 52.6334 134.363 52.4315 134.449C52.2186 134.531 52.007 134.529 51.7967 134.444C51.5864 134.36 51.4383 134.216 51.3524 134.014C51.2665 133.813 51.2659 133.606 51.3506 133.396L53.1838 128.847C53.7279 127.497 53.3913 126.576 52.1738 126.086C51.6204 125.863 51.0698 125.808 50.5222 125.922C49.9635 126.031 49.3924 126.251 48.8087 126.582L46.8016 131.563C46.7169 131.773 46.5736 131.921 46.3717 132.007C46.1587 132.089 45.9471 132.087 45.7368 132.002C45.5265 131.918 45.3784 131.774 45.2925 131.572C45.2066 131.371 45.2061 131.164 45.2908 130.954L48.161 123.832C48.2457 123.621 48.3913 123.468 48.5976 123.371C48.7995 123.285 49.0055 123.284 49.2158 123.369C49.4261 123.454 49.5798 123.599 49.6767 123.806C49.7582 124.019 49.7565 124.23 49.6718 124.441L49.3975 125.121C50.0054 124.826 50.6086 124.638 51.2071 124.558C51.8056 124.477 52.4369 124.571 53.101 124.838Z" fill="#1F2022"/>
<path d="M45.1803 121.159C45.374 121.277 45.4969 121.443 45.5489 121.656C45.6009 121.869 45.568 122.072 45.4502 122.266L41.462 128.828C41.3442 129.022 41.1788 129.145 40.9657 129.197C40.7463 129.259 40.5398 129.231 40.346 129.113C40.1523 128.996 40.0325 128.825 39.9867 128.602C39.9245 128.382 39.9523 128.176 40.0701 127.982L40.4698 127.324C39.1734 127.849 38.0816 127.842 37.1944 127.303L37.118 127.256C36.9242 127.138 36.8064 126.976 36.7646 126.769C36.7126 126.556 36.7455 126.353 36.8633 126.159C36.981 125.965 37.1434 125.847 37.3503 125.806C37.5573 125.764 37.7627 125.805 37.9667 125.929L38.0431 125.975C38.5326 126.273 39.0557 126.423 39.6123 126.426C40.1628 126.44 40.7027 126.321 41.2321 126.07L44.0583 121.42C44.176 121.226 44.3466 121.107 44.5699 121.061C44.7831 121.009 44.9865 121.042 45.1803 121.159Z" fill="#1F2022"/>
<path d="M33.4029 112.038C33.5638 112.198 33.6446 112.388 33.6453 112.607C33.6461 112.826 33.5665 113.017 33.4068 113.177L26.179 120.454L28.7698 123.028C28.9222 123.179 28.9987 123.356 28.9994 123.559C29.0001 123.761 28.9248 123.939 28.7734 124.091C28.622 124.243 28.4451 124.32 28.2426 124.321C28.0317 124.33 27.85 124.259 27.6976 124.107L21.3731 117.826C21.2207 117.674 21.1483 117.493 21.1561 117.282C21.1469 117.071 21.218 116.889 21.3694 116.737C21.5207 116.585 21.7019 116.512 21.9129 116.52C22.1154 116.519 22.2929 116.595 22.4453 116.746L25.0233 119.307L32.2511 112.03C32.4109 111.869 32.6047 111.792 32.8325 111.8C33.0519 111.799 33.242 111.879 33.4029 112.038Z" fill="#1F2022"/>
<path d="M27.144 104.304C27.9755 105.499 28.2885 106.67 28.083 107.816C27.8608 108.959 27.1326 109.96 25.8984 110.819C25.203 111.303 24.4728 111.622 23.7079 111.776C22.943 111.93 22.1953 111.869 21.4648 111.592C20.7343 111.316 20.0999 110.79 19.5614 110.017C19.057 109.292 18.7922 108.546 18.767 107.778C18.732 107.017 18.9031 106.302 19.2804 105.633C19.6479 104.97 20.1646 104.407 20.8307 103.943C21.0168 103.814 21.2178 103.769 21.4338 103.807C21.6429 103.836 21.819 103.954 21.9622 104.159L25.428 109.14C26.0591 108.585 26.4157 107.958 26.4979 107.262C26.58 106.565 26.3518 105.829 25.8133 105.056C25.5271 104.644 25.2391 104.314 24.9495 104.065C24.653 103.806 24.3291 103.581 23.9777 103.389C23.884 103.338 23.803 103.263 23.7349 103.166C23.6258 103.009 23.5843 102.834 23.6102 102.642C23.6362 102.449 23.7324 102.295 23.8989 102.179C24.1144 102.029 24.3842 102.03 24.7084 102.183C25.1897 102.415 25.6137 102.68 25.9805 102.977C26.3472 103.274 26.7351 103.716 27.144 104.304ZM21.3247 105.562C20.8652 105.926 20.5522 106.332 20.3858 106.783C20.2125 107.223 20.1648 107.656 20.2428 108.081C20.311 108.514 20.461 108.896 20.6927 109.229C20.9245 109.562 21.2312 109.836 21.6128 110.05C21.9847 110.271 22.4072 110.377 22.8804 110.368C23.3536 110.358 23.8403 110.201 24.3408 109.897L21.3247 105.562Z" fill="#1F2022"/>
<path d="M22.8759 96.9353C23.0915 97.4141 23.1945 97.9043 23.1848 98.406C23.1702 98.8968 23.0319 99.3451 22.7697 99.7511C22.4967 100.162 22.1154 100.478 21.6258 100.698C20.8206 101.061 20.0365 101.034 19.2736 100.619C18.5057 100.192 17.845 99.3645 17.2913 98.135L16.402 96.1601L16.2714 96.2189C15.5533 96.5423 15.1173 96.9546 14.9634 97.4558C14.8047 97.9461 14.8944 98.5666 15.2325 99.3173C15.4187 99.7308 15.6179 100.086 15.8302 100.383C16.0376 100.669 16.2947 100.979 16.6017 101.312C16.6626 101.389 16.7054 101.455 16.7299 101.509C16.8034 101.672 16.8072 101.841 16.7414 102.014C16.6757 102.188 16.5557 102.314 16.3816 102.392C16.0878 102.525 15.8174 102.476 15.5703 102.247C14.7621 101.499 14.1424 100.646 13.7112 99.6883C13.3732 98.9375 13.2413 98.2378 13.3157 97.5893C13.3851 96.9298 13.6108 96.3701 13.9926 95.9102C14.3587 95.4444 14.8246 95.0841 15.3904 94.8293L20.0092 92.7493C20.216 92.6562 20.4244 92.6539 20.6344 92.7426C20.8396 92.8203 20.9887 92.9626 21.0818 93.1693C21.1749 93.376 21.1825 93.582 21.1048 93.7871C21.027 93.9923 20.8848 94.1414 20.6781 94.2345L20.2537 94.4256C21.4432 94.8584 22.3173 95.6949 22.8759 96.9353ZM21.3203 96.9684C21.1047 96.4897 20.7822 96.0787 20.3528 95.7355C19.9126 95.3972 19.4497 95.1541 18.9644 95.0062L17.5934 95.6236L18.3945 97.4026C19.1344 99.0456 19.9341 99.6735 20.7937 99.2864C21.1854 99.11 21.4422 98.8374 21.5639 98.4684C21.6808 98.0886 21.5996 97.5886 21.3203 96.9684Z" fill="#1F2022"/>
<path d="M19.3521 88.8792C19.3925 89.1023 19.3503 89.304 19.2253 89.4843C19.1004 89.6647 18.9264 89.7751 18.7033 89.8155L11.1476 91.1861C10.9245 91.2265 10.7228 91.1843 10.5425 91.0593C10.3504 90.9365 10.2342 90.7636 10.1937 90.5405C10.1532 90.3174 10.2013 90.1146 10.338 89.9322C10.4609 89.7401 10.6338 89.6238 10.8569 89.5834L11.579 89.4524C11.0497 89.2088 10.5909 88.8858 10.2025 88.4832C9.81208 88.0689 9.54975 87.4919 9.41557 86.7522C9.2963 86.0947 9.37019 85.4992 9.63724 84.9656C9.9043 84.432 10.2722 84.0197 10.7408 83.7285C9.39941 83.2199 8.59878 82.2494 8.33894 80.8169C8.21967 80.1594 8.28502 79.5836 8.53498 79.0895C8.7828 78.5837 9.14586 78.1783 9.62415 77.8732C10.1024 77.5681 10.6234 77.3645 11.187 77.2623L16.2593 76.3422C16.4824 76.3017 16.6852 76.3498 16.8676 76.4865C17.0479 76.6115 17.1583 76.7855 17.1988 77.0086C17.2393 77.2317 17.197 77.4334 17.0721 77.6137C16.9471 77.794 16.7731 77.9044 16.55 77.9449L11.7947 78.8075C11.0315 78.9459 10.4983 79.1821 10.195 79.5161C9.88003 79.8521 9.78216 80.3489 9.90143 81.0065C10.0101 81.6053 10.2591 82.0755 10.6485 82.4172C11.0241 82.7493 11.492 83.0222 12.0523 83.2359L17.3359 82.2775C17.559 82.237 17.7618 82.2851 17.9442 82.4218C18.1246 82.5468 18.235 82.7208 18.2754 82.9439C18.3159 83.167 18.2737 83.3687 18.1487 83.549C18.0238 83.7293 17.8497 83.8397 17.6266 83.8802L12.8713 84.7428C12.1081 84.8812 11.5749 85.1174 11.2717 85.4514C10.9567 85.7875 10.8588 86.2843 10.9781 86.9418C11.0867 87.5406 11.3357 88.0109 11.7251 88.3526C12.1007 88.6847 12.5686 88.9575 13.1289 89.1712L18.4125 88.2128C18.6356 88.1724 18.8384 88.2205 19.0209 88.3572C19.2012 88.4821 19.3116 88.6561 19.3521 88.8792Z" fill="#1F2022"/>
<path d="M6.61022 66.6016C6.58628 66.8511 6.47666 67.0564 6.28138 67.2174C6.0861 67.3785 5.86374 67.4471 5.61429 67.4231L5.54302 67.4163C5.29357 67.3923 5.08831 67.2827 4.92723 67.0874C4.76616 66.8922 4.6976 66.6698 4.72154 66.4203L4.7318 66.3134C4.75575 66.064 4.86536 65.8587 5.06064 65.6977C5.25592 65.5366 5.47829 65.468 5.72774 65.492L5.79901 65.4988C6.04846 65.5227 6.25372 65.6324 6.41479 65.8276C6.57586 66.0229 6.64443 66.2453 6.62048 66.4947L6.61022 66.6016ZM17.6428 67.6247C17.6212 67.8504 17.5257 68.0331 17.3565 68.1727C17.1872 68.3123 16.9897 68.3712 16.7641 68.3496L9.12025 67.6158C8.89456 67.5941 8.71191 67.4987 8.57231 67.3294C8.42084 67.1591 8.35593 66.961 8.3776 66.7353C8.4004 66.4978 8.49643 66.3092 8.66567 66.1696C8.83491 66.03 9.03832 65.9716 9.27589 65.9944L16.9197 66.7281C17.1454 66.7498 17.3275 66.8512 17.4659 67.0323C17.6055 67.2016 17.6645 67.399 17.6428 67.6247Z" fill="#1F2022"/>
<path d="M18.1691 63.0957C18.1161 63.3161 17.9961 63.4836 17.809 63.5982C17.6219 63.7128 17.4182 63.7436 17.1977 63.6906L9.73143 61.896C9.51098 61.843 9.34346 61.7229 9.22888 61.5358C9.1027 61.346 9.06611 61.1408 9.1191 60.9203C9.17208 60.6999 9.29793 60.5338 9.49662 60.422C9.6865 60.2958 9.89166 60.2592 10.1121 60.3122L10.8257 60.4837C10.4443 59.9257 10.17 59.3565 10.0026 58.7763C9.83529 58.1961 9.83528 57.5579 10.0026 56.8617C10.156 56.2236 10.4393 55.7087 10.8525 55.3171C11.2685 54.9139 11.7669 54.6532 12.3476 54.5351C12.9311 54.4053 13.5361 54.4157 14.1626 54.5663L19.1053 55.7544C19.3258 55.8074 19.4919 55.9332 19.6037 56.1319C19.7183 56.319 19.749 56.5228 19.6961 56.7433C19.6431 56.9637 19.523 57.1312 19.3359 57.2458C19.1489 57.3604 18.9451 57.3912 18.7246 57.3382L13.956 56.1919C12.5404 55.8517 11.6793 56.3197 11.3725 57.596C11.2331 58.1761 11.2584 58.7345 11.4485 59.2711C11.6414 59.7961 11.9443 60.323 12.3572 60.8518L17.5784 62.1069C17.7988 62.1598 17.965 62.2857 18.0768 62.4844C18.1913 62.6715 18.2221 62.8752 18.1691 63.0957Z" fill="#1F2022"/>
<path d="M23.285 47.8161C23.1702 48.0116 23.0067 48.1369 22.7943 48.1921C22.582 48.2473 22.3781 48.2175 22.1826 48.1027L12.7365 42.5552C12.541 42.4404 12.4157 42.2768 12.3604 42.0645C12.2949 41.8461 12.3196 41.6392 12.4344 41.4437L14.5011 37.9246C15.0752 36.947 15.7082 36.2463 16.4001 35.8223C17.0919 35.3982 17.7736 35.2035 18.4453 35.2382C19.1169 35.2728 19.7511 35.4653 20.3479 35.8158C20.9447 36.1663 21.4218 36.6264 21.7792 37.1961C22.1365 37.7658 22.2986 38.456 22.2653 39.2668C22.2319 40.0775 21.9283 40.9717 21.3542 41.9492L19.7044 44.7584L23.0074 46.6982C23.203 46.813 23.3253 46.9817 23.3745 47.2043C23.4297 47.4166 23.3999 47.6206 23.285 47.8161ZM19.9452 41.3086C20.5616 40.259 20.793 39.4055 20.6395 38.7479C20.492 38.0801 20.1198 37.5709 19.523 37.2204C18.9262 36.8699 18.3002 36.7929 17.6451 36.9894C16.9961 37.1756 16.3633 37.7935 15.7469 38.843L14.1788 41.5132L18.377 43.9788L19.9452 41.3086Z" fill="#1F2022"/>
<path d="M21.0837 31.1334C20.9261 31.3282 20.7215 31.439 20.4697 31.4656C20.218 31.4922 19.9947 31.4268 19.7999 31.2692L19.7442 31.2242C19.5493 31.0666 19.4386 30.862 19.4119 30.6102C19.3853 30.3585 19.4508 30.1352 19.6083 29.9404L19.6759 29.8568C19.8334 29.662 20.0381 29.5512 20.2898 29.5246C20.5415 29.498 20.7648 29.5634 20.9597 29.721L21.0154 29.766C21.2102 29.9236 21.321 30.1282 21.3476 30.38C21.3743 30.6317 21.3088 30.855 21.1512 31.0499L21.0837 31.1334ZM29.7218 38.0723C29.5792 38.2486 29.3989 38.3483 29.1807 38.3713C28.9625 38.3944 28.7653 38.3347 28.589 38.1921L22.6179 33.3638C22.4416 33.2213 22.3419 33.0409 22.3188 32.8227C22.2865 32.597 22.3416 32.3961 22.4841 32.2198C22.6342 32.0342 22.8183 31.9298 23.0365 31.9068C23.2547 31.8837 23.4565 31.9472 23.6421 32.0972L29.6132 36.9255C29.7895 37.0681 29.8854 37.2531 29.901 37.4806C29.9241 37.6987 29.8643 37.896 29.7218 38.0723Z" fill="#1F2022"/>
<path d="M32.3075 34.976C32.1352 35.1412 31.9478 35.2217 31.7454 35.2174C31.5433 35.1963 31.3555 35.0954 31.182 34.9145C31.0581 34.7853 30.9856 34.6234 30.9643 34.4289L30.6994 30.1444L26.3553 29.6231C26.145 29.5934 25.9778 29.514 25.8539 29.3848C25.6887 29.2125 25.6126 29.021 25.6254 28.8103C25.63 28.591 25.7141 28.4028 25.8777 28.2459C26.0844 28.0477 26.3097 27.9722 26.5534 28.0195L30.5055 28.5199L30.1577 24.5628C30.1207 24.3172 30.2012 24.0995 30.3993 23.9095C30.5715 23.7443 30.7673 23.664 30.9867 23.6686C31.1977 23.6646 31.3776 23.74 31.5263 23.8951C31.6502 24.0243 31.7228 24.1861 31.744 24.3807L32.0073 28.7411L36.3519 29.2371C36.5458 29.2496 36.7129 29.329 36.8533 29.4754C37.0103 29.6391 37.0949 29.8307 37.1072 30.0504C37.1112 30.2615 37.0185 30.4579 36.829 30.6396C36.6395 30.8213 36.4145 30.8884 36.1538 30.8407L32.2131 30.4039L32.5635 34.2344C32.5995 34.5306 32.5142 34.7778 32.3075 34.976Z" fill="#1F2022"/>
<path d="M42.6664 26.4907C41.4537 27.2962 40.2766 27.5837 39.1352 27.3534C37.9971 27.1065 37.0121 26.3568 36.1803 25.1043C35.7115 24.3986 35.4083 23.6616 35.2706 22.8936C35.133 22.1255 35.2104 21.3793 35.5029 20.655C35.7954 19.9307 36.3343 19.3077 37.1196 18.7862C37.8552 18.2976 38.6069 18.0491 39.3747 18.0405C40.136 18.0219 40.8472 18.2085 41.5085 18.6002C42.1631 18.9819 42.7149 19.5108 43.1639 20.1867C43.2893 20.3756 43.3303 20.5775 43.2869 20.7926C43.2535 21.001 43.1324 21.1746 42.9236 21.3132L37.8689 24.6704C38.4106 25.3134 39.0289 25.6835 39.7237 25.7807C40.4186 25.8779 41.1587 25.6657 41.944 25.1441C42.3615 24.8668 42.6979 24.5861 42.9532 24.3019C43.2185 24.0111 43.4507 23.6921 43.6499 23.345C43.703 23.2524 43.7793 23.1731 43.8787 23.1071C44.0377 23.0014 44.2132 22.9637 44.4051 22.9938C44.597 23.0239 44.7491 23.1235 44.8613 23.2924C45.0066 23.5111 44.9995 23.7809 44.84 24.1016C44.5976 24.5778 44.3238 24.996 44.0187 25.3562C43.7136 25.7164 43.2629 26.0946 42.6664 26.4907ZM41.5347 20.6456C41.1814 20.1783 40.7815 19.8566 40.335 19.6804C39.8984 19.4976 39.4666 19.4406 39.0396 19.5094C38.6059 19.5682 38.2201 19.7098 37.8821 19.9343C37.5441 20.1588 37.264 20.4595 37.0416 20.8364C36.8126 21.2033 36.6976 21.6235 36.6968 22.0968C36.696 22.57 36.8424 23.0601 37.1361 23.567L41.5347 20.6456Z" fill="#1F2022"/>
<path d="M48.6737 22.9814C48.4699 23.0806 48.2643 23.0944 48.0569 23.0228C47.8495 22.9512 47.6962 22.8134 47.597 22.6096L42.5139 12.1638C42.4147 11.96 42.4009 11.7543 42.4725 11.547C42.5389 11.3289 42.674 11.1702 42.8779 11.071C43.0925 10.9666 43.3035 10.9502 43.5108 11.0218C43.7182 11.0934 43.8741 11.2365 43.9785 11.4511L49.0617 21.8968C49.1609 22.1007 49.1693 22.3089 49.087 22.5215C49.0154 22.7289 48.8776 22.8822 48.6737 22.9814Z" fill="#1F2022"/>
<path d="M54.8911 20.5065C53.7633 20.8966 52.6493 20.9978 51.549 20.8103C51.3105 20.7412 51.1503 20.5883 51.0684 20.3515C51.0059 20.1711 51.0133 19.9917 51.0906 19.8135C51.1678 19.6352 51.3023 19.513 51.494 19.4466C51.5955 19.4115 51.7048 19.399 51.8219 19.409C52.2374 19.442 52.6412 19.4412 53.0333 19.4066C53.4254 19.372 53.847 19.2767 54.2981 19.1206C55.5498 18.6876 56.0372 18.0707 55.7603 17.27C55.6705 17.0107 55.4557 16.864 55.1156 16.8301C54.7869 16.7923 54.2662 16.802 53.5536 16.8591C52.8336 16.9314 52.2245 16.959 51.7261 16.942C51.2391 16.9211 50.7791 16.7961 50.3463 16.567C49.9209 16.3227 49.6107 15.9186 49.4156 15.3548C49.1425 14.5653 49.2021 13.825 49.5943 13.1337C49.9978 12.4386 50.7296 11.9076 51.7897 11.5409C52.6581 11.2405 53.5244 11.0987 54.3888 11.1153C54.5623 11.1058 54.71 11.1495 54.8318 11.2462C54.965 11.339 55.0549 11.4531 55.1018 11.5885C55.1642 11.7689 55.1511 11.9502 55.0626 12.1323C54.9854 12.3106 54.8509 12.4328 54.6592 12.4992C54.6028 12.5187 54.5256 12.5328 54.4276 12.5414C53.7033 12.5647 53.0253 12.6855 52.3938 12.904C51.7848 13.1147 51.3445 13.3932 51.073 13.7397C50.8088 14.071 50.7371 14.4115 50.8581 14.7611C50.9751 15.0994 51.2188 15.2929 51.5892 15.3415C51.9596 15.3902 52.5028 15.3727 53.2189 15.2892C53.9428 15.2282 54.5426 15.2101 55.0184 15.2349C55.4903 15.2484 55.9333 15.3793 56.3474 15.6275C56.7728 15.8717 57.087 16.2871 57.2898 16.8735C57.5395 17.5953 57.4587 18.2924 57.0474 18.9651C56.6474 19.6338 55.9286 20.1476 54.8911 20.5065Z" fill="#1F2022"/>
<path d="M66.4771 13.0042C66.0499 13.0501 65.641 12.986 65.2503 12.8119C64.8714 12.6366 64.556 12.3824 64.3043 12.0494C64.0512 11.7045 63.9017 11.3185 63.8559 10.8913C63.81 10.4642 63.8748 10.0612 64.0501 9.68232C64.2242 9.29157 64.4778 8.97031 64.8108 8.71853C65.1557 8.46547 65.5417 8.31601 65.9688 8.27015C66.3959 8.22429 66.7989 8.28904 67.1778 8.46439C67.5686 8.63847 67.8845 8.89858 68.1257 9.24474C68.3775 9.57776 68.5263 9.95784 68.5722 10.385C68.618 10.8121 68.5539 11.221 68.3799 11.6118C68.2164 11.9894 67.9622 12.3047 67.6173 12.5578C67.2843 12.8096 66.9042 12.9584 66.4771 13.0042Z" fill="#1F2022"/>
</svg>
