<svg width="16" height="16" viewBox="0 0 16 16" fill="none" xmlns="http://www.w3.org/2000/svg">
<path d="M11.0916 6.22007C11.1446 6.27299 11.1866 6.33583 11.2153 6.405C11.244 6.47417 11.2587 6.54831 11.2587 6.62319C11.2587 6.69806 11.244 6.77221 11.2153 6.84137C11.1866 6.91054 11.1446 6.97338 11.0916 7.0263L7.10321 11.0147C7.0503 11.0677 6.98746 11.1097 6.91829 11.1384C6.84912 11.167 6.77498 11.1818 6.7001 11.1818C6.62522 11.1818 6.55108 11.167 6.48191 11.1384C6.41274 11.1097 6.3499 11.0677 6.29699 11.0147L4.58768 9.30538C4.48076 9.19847 4.4207 9.05347 4.4207 8.90227C4.4207 8.75107 4.48076 8.60607 4.58768 8.49916C4.69459 8.39224 4.83959 8.33218 4.99079 8.33218C5.14198 8.33218 5.28699 8.39224 5.3939 8.49916L6.7001 9.80607L10.2854 6.22007C10.3383 6.1671 10.4011 6.12507 10.4703 6.0964C10.5395 6.06773 10.6136 6.05297 10.6885 6.05297C10.7634 6.05297 10.8375 6.06773 10.9067 6.0964C10.9759 6.12507 11.0387 6.1671 11.0916 6.22007ZM15.2467 8.3325C15.2467 9.79747 14.8123 11.2295 13.9984 12.4476C13.1845 13.6657 12.0276 14.6151 10.6742 15.1757C9.32073 15.7363 7.83143 15.883 6.39461 15.5972C4.95778 15.3114 3.63798 14.6059 2.60209 13.5701C1.5662 12.5342 0.860746 11.2144 0.574944 9.77754C0.289143 8.34072 0.435827 6.85141 0.996447 5.49795C1.55707 4.1445 2.50644 2.98768 3.72452 2.17378C4.9426 1.35989 6.37467 0.925476 7.83964 0.925476C9.80347 0.92755 11.6863 1.7086 13.0749 3.09723C14.4635 4.48587 15.2446 6.36867 15.2467 8.3325ZM14.1071 8.3325C14.1071 7.09291 13.7395 5.88116 13.0509 4.85047C12.3622 3.81979 11.3833 3.01647 10.2381 2.5421C9.09287 2.06773 7.83269 1.94361 6.61692 2.18545C5.40115 2.42728 4.28439 3.0242 3.40787 3.90072C2.53134 4.77724 1.93442 5.894 1.69259 7.10977C1.45076 8.32555 1.57488 9.58573 2.04925 10.731C2.52362 11.8762 3.32694 12.855 4.35762 13.5437C5.3883 14.2324 6.60005 14.6 7.83964 14.6C9.5013 14.5981 11.0944 13.9372 12.2693 12.7622C13.4443 11.5872 14.1052 9.99416 14.1071 8.3325Z" fill="#00C851"/>
</svg>
