<svg width="86" height="87" viewBox="0 0 86 87" fill="none" xmlns="http://www.w3.org/2000/svg">
<g clip-path="url(#clip0_671_392)">
<path d="M40.9517 81.3347C63.1906 81.3347 81.2188 63.3065 81.2188 41.0676C81.2188 18.8287 63.1906 0.800476 40.9517 0.800476C18.7128 0.800476 0.68457 18.8287 0.68457 41.0676C0.68457 63.3065 18.7128 81.3347 40.9517 81.3347Z" fill="#FFC701"/>
<path d="M71.8872 14.2595C68.2056 10.0103 63.6882 6.56504 58.6165 4.13849C53.5448 1.71195 48.0277 0.356134 42.409 0.155573C36.7903 -0.0449883 31.1905 0.914003 25.9588 2.97276C20.727 5.03153 15.9754 8.14592 12.0002 12.1218C8.02496 16.0977 4.91136 20.8498 2.85346 26.0819C0.795568 31.314 -0.162497 36.9139 0.0389938 42.5326C0.240485 48.1512 1.59721 53.6682 4.0246 58.7394C6.45198 63.8107 9.89798 68.3276 14.1478 72.0085C17.8294 76.2577 22.3468 79.7029 27.4185 82.1295C32.4902 84.556 38.0073 85.9118 43.626 86.1124C49.2447 86.313 54.8445 85.354 60.0762 83.2952C65.308 81.2364 70.0596 78.122 74.0348 74.1462C78.01 70.1703 81.1236 65.4182 83.1815 60.1861C85.2394 54.954 86.1975 49.354 85.996 43.7354C85.7945 38.1167 84.4378 32.5998 82.0104 27.5285C79.583 22.4573 76.137 17.9404 71.8872 14.2595ZM40.9511 1.48848C48.7803 1.48848 56.4336 3.81016 62.9432 8.1599C69.4529 12.5096 74.5264 18.6921 77.5223 25.9254C80.5182 33.1587 81.3018 41.1179 79.7741 48.7966C78.2463 56.4752 74.4758 63.5284 68.9395 69.0641C63.4031 74.5998 56.3495 78.3694 48.6706 79.8962C40.9918 81.4231 33.0326 80.6385 25.7997 77.6417C18.5668 74.645 12.3849 69.5707 8.03599 63.0605C3.68703 56.5504 1.36628 48.8968 1.36722 41.0676C1.37861 30.5732 5.55285 20.512 12.9739 13.0918C20.395 5.67163 30.4567 1.4986 40.9511 1.48848Z" fill="black"/>
<path d="M34.0611 32.9598C33.952 31.0093 33.1003 29.1747 31.6809 27.8325C30.2615 26.4903 28.3821 25.7425 26.4286 25.7425C24.4751 25.7425 22.5958 26.4903 21.1764 27.8325C19.757 29.1747 18.9053 31.0093 18.7961 32.9598L17.4297 32.8308C17.6427 30.5916 18.6828 28.5123 20.3468 26.999C22.0109 25.4857 24.1794 24.6471 26.4286 24.6471C28.6779 24.6471 30.8464 25.4857 32.5104 26.999C34.1745 28.5123 35.2146 30.5916 35.4276 32.8308L34.0611 32.9598Z" fill="black"/>
<path d="M63.1105 32.9597C62.9584 31.0366 62.087 29.2416 60.6702 27.9324C59.2533 26.6232 57.3951 25.8962 55.4661 25.8962C53.537 25.8962 51.6788 26.6232 50.262 27.9324C48.8451 29.2416 47.9738 31.0366 47.8216 32.9597L46.46 32.8307C46.6669 30.5878 47.7043 28.503 49.3686 26.9853C51.0328 25.4675 53.2041 24.6261 55.4565 24.6261C57.709 24.6261 59.8802 25.4675 61.5445 26.9853C63.2088 28.503 64.2461 30.5878 64.4531 32.8307L63.1105 32.9597Z" fill="black"/>
<path d="M40.9513 68.6163C34.09 68.6172 27.4749 66.0595 22.3989 61.443C17.323 56.8265 14.151 50.483 13.5029 43.6524L14.8694 43.5234C15.4851 50.015 18.4992 56.0437 23.3229 60.4315C28.1465 64.8193 34.4329 67.2508 40.9537 67.2508C47.4744 67.2508 53.7608 64.8193 58.5844 60.4315C63.4081 56.0437 66.4222 50.015 67.0379 43.5234L68.3996 43.6524C67.7515 50.483 64.5795 56.8265 59.5036 61.443C54.4276 66.0595 47.8126 68.6172 40.9513 68.6163Z" fill="black"/>
</g>
<defs>
<clipPath id="clip0_671_392">
<rect width="86" height="86" fill="white" transform="translate(0 0.117188)"/>
</clipPath>
</defs>
</svg>
