<svg width="85" height="60" viewBox="0 0 85 60" fill="none" xmlns="http://www.w3.org/2000/svg">
<path d="M84.1957 27.0566L79.1928 15.6972C78.8609 14.9414 77.9767 14.6006 77.2225 14.9317C76.466 15.2644 76.1237 16.1471 76.457 16.9028L81.4801 28.3079C81.4958 28.343 81.5123 28.3774 81.5302 28.4111C81.652 28.6398 81.5623 28.9373 81.3336 29.0599C81.2678 29.0958 81.2043 29.1361 81.1445 29.181L75.3597 33.5171C75.146 33.5904 74.8903 33.4977 74.7804 33.2936L61.6076 8.71642C61.5283 8.56767 61.5522 8.42565 61.5739 8.35464C61.5949 8.28363 61.6532 8.15207 61.8027 8.07209L70.0631 3.64551C70.2783 3.5289 70.5572 3.60439 70.6895 3.80771L72.464 7.83664C72.7966 8.59309 73.6794 8.93394 74.4351 8.60206C75.1908 8.26943 75.5331 7.38665 75.1998 6.63095L73.3939 2.53101C73.3782 2.49588 73.3617 2.46075 73.3438 2.42636C72.4401 0.743035 70.3337 0.106927 68.6518 1.00989L60.3922 5.43647C59.5774 5.87225 58.9809 6.60105 58.7126 7.48906C58.448 8.36211 58.5377 9.28152 58.9547 10.0866L56.7175 11.654H46.8164L42.9078 8.67157C42.5871 8.42715 42.1813 8.3225 41.7844 8.3808L27.5837 10.4648L25.7292 9.83092C26.0416 9.08941 26.1014 8.27316 25.8652 7.4898C25.5969 6.6018 25.0004 5.87225 24.1871 5.43797L15.9237 1.00615C15.4237 0.739298 14.8593 0.598022 14.2927 0.598022C13.0108 0.598022 11.838 1.29692 11.231 2.42188C11.2123 2.45626 11.1952 2.49214 11.1795 2.52877L0.379846 27.0566C-0.458081 28.6944 0.13542 30.7073 1.71634 31.6305L7.5467 36.0003C7.6065 36.0458 7.67078 36.0862 7.73731 36.1213C8.23737 36.3897 8.80172 36.531 9.36906 36.531C10.4469 36.531 11.4426 36.0324 12.0944 35.2057L12.9637 35.5159C13.466 36.7275 14.7375 39.0582 17.5196 40.6683C17.4426 40.9157 17.3806 41.1683 17.3439 41.43C17.1593 42.7283 17.4912 44.0215 18.2813 45.0724C19.2455 46.3521 20.7203 47.0264 22.21 47.0264C22.3386 47.0264 22.4672 47.0062 22.5957 46.9957C22.6555 47.9428 22.9882 48.851 23.5712 49.6224C24.3576 50.6703 25.5057 51.349 26.8033 51.5329C27.0373 51.5658 27.2698 51.5823 27.5015 51.5823C27.8782 51.5823 28.2482 51.5232 28.6115 51.438C28.7258 52.2236 29.0323 52.992 29.5421 53.6692C30.5041 54.9459 31.9729 55.6202 33.4634 55.6202C33.7385 55.6202 34.0135 55.5932 34.2879 55.5469C34.385 56.3833 34.6922 57.2048 35.2342 57.9254C36.1969 59.2051 37.6702 59.8793 39.1607 59.8793C40.1862 59.8793 41.2207 59.5594 42.102 58.8971L46.2453 55.7809C47.0676 56.4491 48.0841 56.8124 49.1575 56.8124C50.3909 56.8124 51.5517 56.3325 52.4292 55.4587C53.0534 54.8338 53.4466 54.0691 53.6379 53.2663C53.9354 53.3261 54.2411 53.3568 54.5521 53.3568C55.7877 53.3568 56.9493 52.8754 57.8246 52.0008C58.3538 51.4709 58.7081 50.8385 58.9263 50.171C59.4257 50.3519 59.9556 50.4513 60.5013 50.4513C61.7361 50.4513 62.8985 49.9692 63.7723 49.0961C64.3291 48.5415 64.7238 47.868 64.9398 47.134C65.3517 47.2521 65.7822 47.3164 66.2225 47.3164C67.4581 47.3164 68.6197 46.835 69.4935 45.9612C71.2957 44.159 71.2964 41.2251 69.4935 39.42L69.0181 38.9446C70.0489 37.7651 70.6992 36.2948 71.0273 35.3828L72.3242 34.9837C72.9827 35.9711 74.0785 36.5317 75.2125 36.5317C75.7634 36.5317 76.3225 36.4002 76.842 36.1221C76.9093 36.087 76.9728 36.0458 77.0333 36.0003L82.8637 31.6305C84.4416 30.7058 85.0336 28.6929 84.1957 27.0566ZM9.21732 33.5164L3.43107 29.1795C3.37127 29.1339 3.30698 29.0935 3.24046 29.0584C3.01248 28.9358 2.92353 28.6383 3.04611 28.4088C3.06405 28.3759 3.0805 28.3416 3.09545 28.3064L13.8838 3.80547C14.0505 3.55132 14.3331 3.5446 14.5132 3.64177L22.7744 8.06985C22.9224 8.14908 22.9807 8.28064 23.0024 8.35165C23.0241 8.42341 23.0487 8.56543 22.9687 8.71418L9.79587 33.2906C9.66133 33.5433 9.39821 33.5792 9.21732 33.5164ZM15.5776 33.9678C15.4528 33.4895 15.0985 33.1038 14.6328 32.9371L13.5796 32.5611L24.3277 12.5084L26.9595 13.4076C27.1845 13.4839 27.4252 13.5063 27.6599 13.4719L41.596 11.4268L52.572 19.8008V30.741C51.3745 30.9383 49.4453 30.8045 48.3906 28.3707L46.1481 22.7168C45.9702 22.2683 45.5875 21.9341 45.1196 21.8168L40.5316 20.6746C39.965 20.5349 39.3692 20.7359 39.0045 21.1896C38.9335 21.2779 31.8466 29.9524 24.3172 28.743C23.5024 28.6077 22.7348 29.1668 22.604 29.9823C22.4732 30.797 23.0278 31.5647 23.8425 31.6955C24.8778 31.8622 25.8936 31.8861 26.8855 31.8016L19.2478 38.2053C16.3565 36.6498 15.6075 34.0755 15.5776 33.9678ZM40.3028 56.5074C39.4604 57.142 38.2562 56.9716 37.6216 56.1277C36.9863 55.2838 37.1567 54.0796 38.0013 53.4442C38.097 53.3725 38.1777 53.2895 38.251 53.2013L43.748 48.9085C43.0192 50.4139 43.1478 52.2236 44.1456 53.6176L40.3028 56.5074ZM47.2776 46.1436C47.2783 46.2094 47.2836 46.2751 47.2873 46.3409C47.1827 46.3544 47.0788 46.3671 46.9764 46.3873L47.2305 46.1884C47.2477 46.175 47.2604 46.1578 47.2776 46.1436ZM50.3131 53.3433C49.6927 53.9622 48.6178 53.9645 47.9944 53.3403L46.7319 52.0861C46.0943 51.4455 46.0943 50.4042 46.7312 49.7666C47.0399 49.4587 47.4503 49.289 47.8868 49.289C48.3226 49.289 48.7329 49.4587 49.0439 49.7689L50.3183 51.0433C50.9462 51.6817 50.9447 52.7109 50.3131 53.3433ZM55.7062 49.887C55.0895 50.5044 54.0117 50.5051 53.392 49.887L52.4307 48.9257C52.4277 48.9227 52.4255 48.919 52.4225 48.916L51.1578 47.6535L51.157 47.6527L50.7429 47.2394C50.4342 46.9299 50.2638 46.5196 50.2638 46.083C50.2638 45.6472 50.4342 45.2369 50.7437 44.9267C51.0531 44.6172 51.4635 44.4468 51.9 44.4468C52.3358 44.4468 52.7454 44.6165 53.0556 44.9282L55.6449 47.513L55.7069 47.575C56.3431 48.2111 56.3431 49.2494 55.7062 49.887ZM61.6569 46.9793C61.0365 47.5997 59.9609 47.5997 59.3405 46.9793L54.4788 42.1191C53.8405 41.4808 53.8405 40.4433 54.4781 39.8057C54.7883 39.4955 55.1994 39.325 55.6359 39.325C56.0717 39.325 56.4821 39.4955 56.7923 39.8064L61.6539 44.6673C61.9641 44.9783 62.1353 45.3901 62.1345 45.8289C62.1345 46.2639 61.9649 46.672 61.6569 46.9793ZM67.3759 43.8458C66.7585 44.4632 65.6791 44.464 65.0617 43.8458L62.4133 41.1982C61.7757 40.5606 61.7765 39.5209 62.4111 38.884C62.7206 38.5753 63.1317 38.4056 63.5682 38.4056C64.0062 38.4056 64.4181 38.5761 64.7268 38.884L65.3367 39.494C65.3577 39.5478 65.3756 39.6031 65.404 39.6554C65.5752 39.9739 65.851 40.1921 66.162 40.3185L67.3751 41.5324C68.0135 42.1707 68.0135 43.209 67.3759 43.8458ZM68.3999 33.7855C68.2385 34.3663 67.6958 35.8358 66.9035 36.8307L66.8399 36.7679C65.9654 35.8956 64.803 35.4157 63.569 35.4157C62.3356 35.4157 61.1748 35.8956 60.2972 36.7702C59.8898 37.179 59.5879 37.6507 59.3644 38.1493L58.9077 37.6926C58.0339 36.818 56.8715 36.3359 55.6367 36.3359C54.4018 36.3359 53.2395 36.818 52.3642 37.6926C51.3177 38.7398 50.8976 40.1682 51.0681 41.5354C50.1494 41.702 49.3033 42.1401 48.6298 42.8135C48.194 43.2493 47.8561 43.7569 47.6267 44.3093C47.5856 44.2345 47.5429 44.1605 47.4884 44.091C46.9801 43.4399 46.0405 43.3248 45.3902 43.8331L34.6093 52.252C33.7691 52.8859 32.5657 52.7139 31.9296 51.8708C31.2957 51.0284 31.4676 49.8257 32.313 49.1888C32.4027 49.1208 32.4812 49.0438 32.5515 48.9616L43.9595 40.1286C44.6121 39.6233 44.7317 38.6837 44.2256 38.0312C43.7196 37.3779 42.78 37.259 42.1282 37.7643L28.6399 48.2081C28.231 48.5153 27.725 48.6469 27.2227 48.5729C26.7159 48.5011 26.2681 48.2365 25.9587 47.8239C25.6522 47.418 25.5221 46.9157 25.5939 46.4097C25.6604 45.9395 25.8981 45.5247 26.2592 45.2212L41.0593 34.2728C41.7231 33.7817 41.8628 32.8459 41.3717 32.1821C40.8814 31.5184 39.9448 31.3771 39.281 31.8697L24.6438 42.6962C24.611 42.7171 24.5758 42.7321 24.5444 42.756C24.4921 42.7956 24.4443 42.8397 24.3934 42.8816L23.3507 43.6522C22.5075 44.2868 21.3034 44.1164 20.6695 43.2747C20.3608 42.8644 20.2307 42.3583 20.3032 41.8515C20.375 41.347 20.6388 40.9 21.047 40.5943C21.0679 40.5786 21.0896 40.5614 21.1105 40.5442L33.3438 30.288C33.6084 30.0667 33.7699 29.7722 33.8379 29.4598C37.1081 27.5657 39.5883 25.0392 40.702 23.7984L43.6501 24.5324L45.6279 29.5159C47.0661 32.8377 49.6419 33.7825 51.8387 33.7825C52.9173 33.7825 53.9055 33.5545 54.6208 33.2682C55.1889 33.041 55.5612 32.4908 55.5612 31.8801V19.0616C55.5612 18.5951 55.3437 18.1556 54.9729 17.8731L50.7362 14.641H57.1892C57.4957 14.641 57.7962 14.5468 58.0466 14.3704L60.3735 12.7401L70.8591 32.304L69.4016 32.7524C68.9142 32.9027 68.536 33.2936 68.3999 33.7855Z" fill="black"/>
</svg>
