<svg width="20" height="21" viewBox="0 0 20 21" fill="none" xmlns="http://www.w3.org/2000/svg">
<g clip-path="url(#clip0_671_309)">
<path d="M2.93812 18.7658L1.36719 1.14532H18.6297L17.0572 18.7631L9.98797 20.723L2.93812 18.7658Z" fill="#1572B6"/>
<path d="M9.99902 19.2238L15.7114 17.6401L17.0553 2.58478H9.99902V19.2238Z" fill="#33A9DC"/>
<path d="M9.99902 8.96745H12.8587L13.0562 6.75448H9.99902V4.59338H15.4181L15.3662 5.17323L14.835 11.1285H9.99902V8.96745Z" fill="white"/>
<path d="M10.0127 14.5824L10.0031 14.5852L7.59641 13.9353L7.4425 12.2117H5.27344L5.57609 15.605L10.0028 16.8336L10.0127 16.8308V14.5824Z" fill="#EBEBEB"/>
<path d="M12.6745 11.0402L12.4142 13.9342L10.0039 14.5848V16.8333L14.4342 15.6055L14.4667 15.2403L14.8427 11.0402H12.6745Z" fill="white"/>
<path d="M10.0072 4.59338V6.75448H4.78719L4.74391 6.26885L4.64547 5.17323L4.59375 4.59338H10.0072ZM9.99984 8.96776V11.1289H7.62344L7.58016 10.6432L7.48156 9.5476L7.43 8.96776H9.99984Z" fill="#EBEBEB"/>
</g>
<defs>
<clipPath id="clip0_671_309">
<rect width="20" height="20" fill="white" transform="translate(0 0.933594)"/>
</clipPath>
</defs>
</svg>
