<svg width="22" height="23" viewBox="0 0 22 23" fill="none" xmlns="http://www.w3.org/2000/svg">
<path d="M4.05751 19.6346L2.5127 2.30896H19.4871L17.9402 19.6319L10.9896 21.559L4.05751 19.6346Z" fill="#E44F26"/>
<path d="M11 20.0867L16.6169 18.5295L17.9382 3.72626H11V20.0867Z" fill="#F1662A"/>
<path d="M11.001 10.1515H8.1891L7.99523 7.97553H11.001V5.85046H5.67285L5.72373 6.42109L6.24554 12.2765H11.001V10.1515ZM11.001 15.67L10.9914 15.6728L8.62498 15.0341L8.47373 13.3394H6.34041L6.6381 16.6752L10.9914 17.8838L11.001 17.881V15.67Z" fill="#EBEBEB"/>
<path d="M10.9922 10.1515V12.2765H13.6088L13.3627 15.0327L10.9922 15.6721V17.8831L15.3489 16.6751L15.3805 16.3163L15.8796 10.7221L15.9319 10.1515H15.3592H10.9922ZM10.9922 5.85046V7.97553H16.1251L16.1677 7.4984L16.2646 6.42109L16.3155 5.85046H10.9922Z" fill="white"/>
</svg>
