<svg width="22" height="23" viewBox="0 0 22 23" fill="none" xmlns="http://www.w3.org/2000/svg">
<path d="M1.375 2.30859H20.625V21.5586H1.375V2.30859Z" fill="#F5DE19"/>
<path d="M14.3053 17.3487C14.4693 17.6818 14.7242 17.9618 15.0404 18.1565C15.3567 18.3511 15.7215 18.4524 16.0928 18.4487C16.8422 18.4487 17.3214 18.074 17.3214 17.5549C17.3214 16.9362 16.8291 16.7148 16.0041 16.3538L15.5518 16.16C14.2455 15.6038 13.3793 14.9073 13.3793 13.4347C13.3793 12.0783 14.4105 11.045 16.0282 11.045C16.5519 11.0072 17.0751 11.1244 17.5326 11.382C17.9901 11.6396 18.3616 12.0262 18.6008 12.4935L17.1866 13.3976C17.0945 13.1659 16.9341 12.9676 16.7268 12.8291C16.5194 12.6906 16.2748 12.6184 16.0254 12.6221C15.9167 12.6112 15.8068 12.6231 15.7029 12.657C15.5989 12.6909 15.5032 12.7461 15.4217 12.8191C15.3403 12.892 15.275 12.9812 15.2299 13.0808C15.1848 13.1804 15.161 13.2883 15.1599 13.3976C15.1599 13.94 15.4961 14.16 16.2723 14.4976L16.7246 14.6915C18.2619 15.3508 19.1309 16.0225 19.1309 17.5329C19.1309 19.1616 17.8514 20.054 16.1334 20.054C15.464 20.0966 14.7965 19.9446 14.2116 19.6164C13.6266 19.2881 13.1492 18.7975 12.8368 18.2039L14.3053 17.3487ZM7.91501 17.5054C8.19895 18.0093 8.45745 18.4356 9.07895 18.4356C9.67295 18.4356 10.0483 18.2032 10.0483 17.2992V11.1481H11.8571V17.3232C11.8571 19.196 10.7571 20.0485 9.15595 20.0485C8.58996 20.0794 8.02786 19.9384 7.54354 19.6439C7.05922 19.3494 6.67535 18.9152 6.44238 18.3985L7.91501 17.5054Z" fill="black"/>
</svg>
