<svg width="24" height="25" viewBox="0 0 24 25" fill="none" xmlns="http://www.w3.org/2000/svg">
<path d="M12 14.7875C13.0355 14.7875 13.875 13.948 13.875 12.9125C13.875 11.8769 13.0355 11.0375 12 11.0375C10.9645 11.0375 10.125 11.8769 10.125 12.9125C10.125 13.948 10.9645 14.7875 12 14.7875Z" fill="#00D8FF"/>
<path d="M12 17.2123C9.74635 17.2668 7.49835 16.963 5.34 16.3123C4.34297 15.9962 3.41305 15.4983 2.59725 14.8438C2.28595 14.6201 2.0267 14.3318 1.83731 13.9986C1.64791 13.6654 1.53284 13.2951 1.5 12.9133C1.5 11.6735 2.862 10.4585 5.1435 9.66351C7.35955 8.95907 9.67494 8.61766 12 8.65251C14.294 8.62046 16.5784 8.95569 18.7665 9.64551C19.7267 9.95162 20.6251 10.4254 21.42 11.045C21.726 11.2582 21.9813 11.536 22.168 11.8589C22.3546 12.1818 22.468 12.5417 22.5 12.9133C22.5 14.2018 20.9775 15.5075 18.525 16.319C16.4084 16.9485 14.2079 17.2498 12 17.2123ZM12 9.54951C9.77559 9.51977 7.56062 9.84433 5.43825 10.511C3.33825 11.2438 2.397 12.2458 2.397 12.911C2.397 13.607 3.40875 14.7013 5.63025 15.461C7.69505 16.0804 9.84496 16.3687 12 16.3153C14.1123 16.353 16.2179 16.0672 18.2437 15.4678C20.55 14.7035 21.6 13.6078 21.6 12.9133C21.5622 12.6749 21.4753 12.447 21.3449 12.244C21.2145 12.0409 21.0435 11.8671 20.8425 11.7335C20.1313 11.1839 19.3288 10.7639 18.4717 10.493C16.3785 9.83582 14.1937 9.51731 12 9.54951Z" fill="#00D8FF"/>
<path d="M7.73873 22.268C7.38886 22.276 7.04311 22.1911 6.73673 22.022C5.66273 21.4025 5.29073 19.616 5.74148 17.2422C6.23847 14.9705 7.09958 12.7942 8.29148 10.7975C9.40953 8.79429 10.8409 6.98289 12.5312 5.43196C13.2761 4.75299 14.1354 4.21137 15.0692 3.83221C15.407 3.67391 15.7755 3.59186 16.1485 3.59186C16.5215 3.59186 16.89 3.67391 17.2277 3.83221C18.3445 4.47571 18.7142 6.44671 18.193 8.97646C17.6807 11.1249 16.8419 13.182 15.706 15.0762C14.6273 17.0557 13.241 18.8513 11.599 20.396C10.8271 21.1015 9.93123 21.6582 8.95673 22.0377C8.5666 22.1825 8.1548 22.2604 7.73873 22.268ZM9.06848 11.243C7.93155 13.155 7.10623 15.2357 6.62348 17.4072C6.20873 19.5935 6.60698 20.9082 7.18598 21.2427C7.78598 21.59 9.24248 21.2607 11.011 19.7157C12.5785 18.2359 13.9017 16.5171 14.9312 14.6232C16.0194 12.8123 16.824 10.8456 17.317 8.79121C17.8075 6.40996 17.3837 4.95196 16.7822 4.60546C16.5568 4.51908 16.3159 4.48041 16.0747 4.4919C15.8336 4.50339 15.5974 4.56479 15.3812 4.67221C14.55 5.01522 13.7858 5.50218 13.1237 6.11071C11.5087 7.5963 10.1415 9.33041 9.07373 11.2475L9.06848 11.243Z" fill="#00D8FF"/>
<path d="M16.258 22.2767C15.2418 22.2767 13.951 21.6617 12.607 20.5059C10.8871 18.9409 9.43151 17.108 8.29678 15.0782C7.11983 13.1089 6.26553 10.9641 5.76628 8.72493C5.54976 7.73979 5.50964 6.72407 5.64778 5.72493C5.67971 5.35428 5.79258 4.99516 5.9784 4.67287C6.16423 4.35059 6.4185 4.073 6.72328 3.85968C7.83853 3.21393 9.73078 3.87768 11.662 5.59218C13.2675 7.10882 14.6308 8.8627 15.7045 10.7927C16.8808 12.7159 17.744 14.8138 18.262 17.0079C18.4879 18.0292 18.5227 19.0835 18.3648 20.1174C18.3272 20.4987 18.2076 20.8674 18.0142 21.1982C17.8208 21.5289 17.5582 21.8139 17.2443 22.0337C16.9429 22.2007 16.6025 22.2846 16.258 22.2767ZM9.07303 14.6267C10.1616 16.5665 11.552 18.3207 13.192 19.8234C14.8788 21.2747 16.2168 21.5867 16.792 21.2484C17.392 20.8997 17.8345 19.4762 17.3785 17.1729C16.8789 15.0781 16.0509 13.0756 14.9253 11.2397C13.9007 9.39252 12.5993 7.71307 11.0665 6.25968C9.24853 4.64568 7.77403 4.28493 7.17328 4.63293C6.98604 4.78509 6.83238 4.97442 6.72201 5.18897C6.61163 5.40351 6.54695 5.63862 6.53203 5.87943C6.41278 6.77049 6.45163 7.6756 6.64678 8.55318C7.127 10.6945 7.94633 12.7454 9.07378 14.6282L9.07303 14.6267Z" fill="#00D8FF"/>
</svg>
